<?xml version="1.0" encoding="UTF-8"?>
<svg version="1.1" xmlns="http://www.w3.org/2000/svg" width="360" height="229">
<path d="M0 0 C1.69263949 -0.00761181 1.69263949 -0.00761181 3.41947371 -0.0153774 C4.66458123 -0.01587516 5.90968876 -0.01637292 7.19252682 -0.01688576 C8.5111054 -0.02126801 9.82968398 -0.02565027 11.18821949 -0.03016531 C14.85624435 -0.04213628 18.52425605 -0.04778049 22.19229662 -0.05234647 C26.14544611 -0.05830067 30.09857984 -0.06991106 34.05171871 -0.08063698 C43.60343005 -0.10516652 53.15514661 -0.11978965 62.70687976 -0.13269705 C65.40476645 -0.1364088 68.10265261 -0.14038205 70.80053878 -0.14444971 C87.55371956 -0.16968782 104.30690115 -0.19174118 121.06009674 -0.20417786 C124.94123049 -0.20710756 128.82236421 -0.21006922 132.70349789 -0.21308327 C133.66813746 -0.21382932 134.63277704 -0.21457537 135.62664812 -0.21534403 C151.24935189 -0.22799462 166.87194177 -0.2612132 182.49459232 -0.3028851 C198.53413236 -0.34531821 214.57361412 -0.36887455 230.61321014 -0.37409842 C239.61877708 -0.37751115 248.6241661 -0.38924989 257.62967777 -0.42220116 C265.30027415 -0.45022186 272.97065615 -0.4611922 280.64129973 -0.4500057 C284.55352059 -0.44482402 288.46529262 -0.44767326 292.37744808 -0.47247124 C295.96360646 -0.49501251 299.54899492 -0.49418707 303.13516723 -0.47526737 C305.03743061 -0.47115732 306.939699 -0.49157729 308.84184557 -0.51305425 C318.08933743 -0.42779603 324.29360906 1.95486934 331.68828487 7.4206295 C334.27376861 11.09676384 334.26546222 14.26623788 334.16638851 18.59917259 C334.16711864 19.43870979 334.16784878 20.27824699 334.16860104 21.14322472 C334.16512704 23.90874678 334.12627602 26.67256909 334.08704281 29.43779564 C334.07771399 31.35878136 334.0705982 33.27977899 334.06560421 35.20078087 C334.04653987 40.24974642 333.99744375 45.29798949 333.94208431 50.34667015 C333.89087977 55.50129485 333.86808758 60.65603663 333.84290218 65.81084251 C333.78932462 75.9198834 333.70401847 86.02838875 333.59876156 96.13701439 C332.38809772 96.13245987 332.38809772 96.13245987 331.15297604 96.12781334 C330.08522442 96.12545174 329.0174728 96.12309013 327.91736507 96.12065697 C326.86275585 96.11762062 325.80814663 96.11458427 324.72157955 96.11145592 C309.88817189 96.23285884 295.71489846 98.67579734 281.59876156 103.13701439 C280.93634457 103.34278099 280.27392757 103.54854759 279.59143734 103.76054955 C264.68154184 108.51886601 250.60901238 116.21854022 237.29016781 124.34404564 C213.03388755 139.05019422 184.52143292 136.10135708 157.5365057 133.20488548 C142.16556626 131.5722134 125.20961688 130.47805115 112.00110531 140.01201439 C105.76801454 145.27676677 101.65423835 151.11978128 97.59876156 158.13701439 C87.82809551 174.90960974 74.79612398 182.80640869 56.35999203 187.82988548 C51.88104123 189.00176904 47.39514262 190.14501079 42.90735531 191.2825222 C17.93570994 197.73181078 -3.42714145 206.15314656 -22.25670719 224.26592064 C-24.40123844 226.13701439 -24.40123844 226.13701439 -26.40123844 226.13701439 C-26.49468901 199.41615078 -26.56522129 172.69531167 -26.60848713 145.97431755 C-26.62911037 133.56723123 -26.65722659 121.16024646 -26.70299625 108.75322533 C-26.7428711 97.93898656 -26.76867298 87.12482135 -26.77759242 76.31051111 C-26.78280602 70.58465311 -26.79505526 64.85900551 -26.82415867 59.13321495 C-26.85133779 53.7422561 -26.85967828 48.35159406 -26.85366917 42.9605732 C-26.85476827 40.98369674 -26.86270714 39.0068102 -26.87806034 37.02999306 C-26.89802729 34.32616889 -26.89315325 31.6234583 -26.88225651 28.91960716 C-26.89390787 28.14137455 -26.90555924 27.36314193 -26.91756368 26.5613265 C-26.83606114 19.05488515 -23.71608834 12.45186429 -18.40123844 7.13701439 C-12.35862301 3.05551138 -7.40742533 0.01765828 0 0 Z " fill="#FF2F83" transform="translate(26.401238441467285,-0.13701438903808594)"/>
</svg>
